<svg width="24" height="24" viewBox="0 0 24 24" fill="none" xmlns="http://www.w3.org/2000/svg">
<circle cx="12" cy="12" r="11.5" stroke="#DFDFDF"/>
<path d="M16.5684 7H9.35785C9.11574 7 8.92627 7.18947 8.92627 7.43158V14.6421C8.92627 14.8842 9.11574 15.0737 9.35785 15.0737H16.5684C16.8105 15.0737 17 14.8842 17 14.6421V7.43158C17 7.18947 16.8105 7 16.5684 7ZM16.1368 14.2105H9.78943V7.86316H16.1368V14.2105Z" fill="#929292"/>
<path d="M14.6421 16.1368H7.86316V9.35785C7.86316 9.11574 7.67368 8.92627 7.43158 8.92627C7.18947 8.92627 7 9.11574 7 9.35785V16.5684C7 16.8105 7.18947 17 7.43158 17H14.6421C14.8842 17 15.0737 16.8105 15.0737 16.5684C15.0737 16.3263 14.8842 16.1368 14.6421 16.1368Z" fill="#929292"/>
<path d="M11.2842 11.4737H12.5263V12.7263C12.5263 12.9684 12.7158 13.1579 12.9579 13.1579C13.2 13.1579 13.3895 12.9684 13.3895 12.7263V11.4737H14.6421C14.8842 11.4737 15.0737 11.2842 15.0737 11.0421C15.0737 10.8 14.8842 10.6105 14.6421 10.6105H13.3895V9.35785C13.3895 9.11574 13.2 8.92627 12.9579 8.92627C12.7158 8.92627 12.5263 9.11574 12.5263 9.35785V10.6105H11.2842C11.0421 10.6105 10.8526 10.8 10.8526 11.0421C10.8421 11.2736 11.0421 11.4737 11.2842 11.4737Z" fill="#929292"/>
</svg>
