<svg width="139" height="15" viewBox="0 0 139 15" fill="none" xmlns="http://www.w3.org/2000/svg">
<path d="M24.536 5.52C25.16 5.52 25.716 5.656 26.204 5.928C26.7 6.2 27.088 6.584 27.368 7.08C27.648 7.576 27.788 8.148 27.788 8.796C27.788 9.444 27.648 10.02 27.368 10.524C27.088 11.02 26.7 11.404 26.204 11.676C25.716 11.948 25.16 12.084 24.536 12.084C23.672 12.084 22.988 11.796 22.484 11.22V14.328H20.984V5.592H22.412V6.432C22.66 6.128 22.964 5.9 23.324 5.748C23.692 5.596 24.096 5.52 24.536 5.52ZM24.368 10.8C24.92 10.8 25.372 10.616 25.724 10.248C26.084 9.88 26.264 9.396 26.264 8.796C26.264 8.196 26.084 7.712 25.724 7.344C25.372 6.976 24.92 6.792 24.368 6.792C24.008 6.792 23.684 6.876 23.396 7.044C23.108 7.204 22.88 7.436 22.712 7.74C22.544 8.044 22.46 8.396 22.46 8.796C22.46 9.196 22.544 9.548 22.712 9.852C22.88 10.156 23.108 10.392 23.396 10.56C23.684 10.72 24.008 10.8 24.368 10.8ZM32.0906 12.084C31.4426 12.084 30.8586 11.944 30.3386 11.664C29.8186 11.384 29.4106 10.996 29.1146 10.5C28.8266 9.996 28.6826 9.428 28.6826 8.796C28.6826 8.164 28.8266 7.6 29.1146 7.104C29.4106 6.608 29.8186 6.22 30.3386 5.94C30.8586 5.66 31.4426 5.52 32.0906 5.52C32.7466 5.52 33.3346 5.66 33.8546 5.94C34.3746 6.22 34.7786 6.608 35.0666 7.104C35.3626 7.6 35.5106 8.164 35.5106 8.796C35.5106 9.428 35.3626 9.996 35.0666 10.5C34.7786 10.996 34.3746 11.384 33.8546 11.664C33.3346 11.944 32.7466 12.084 32.0906 12.084ZM32.0906 10.8C32.6426 10.8 33.0986 10.616 33.4586 10.248C33.8186 9.88 33.9986 9.396 33.9986 8.796C33.9986 8.196 33.8186 7.712 33.4586 7.344C33.0986 6.976 32.6426 6.792 32.0906 6.792C31.5386 6.792 31.0826 6.976 30.7226 7.344C30.3706 7.712 30.1946 8.196 30.1946 8.796C30.1946 9.396 30.3706 9.88 30.7226 10.248C31.0826 10.616 31.5386 10.8 32.0906 10.8ZM46.7652 5.592L44.4012 12H42.9612L41.3052 7.584L39.6252 12H38.1852L35.8332 5.592H37.2492L38.9412 10.32L40.7052 5.592H41.9652L43.6932 10.344L45.4332 5.592H46.7652ZM53.6447 8.832C53.6447 8.936 53.6367 9.084 53.6207 9.276H48.5927C48.6807 9.748 48.9087 10.124 49.2767 10.404C49.6527 10.676 50.1167 10.812 50.6687 10.812C51.3727 10.812 51.9527 10.58 52.4087 10.116L53.2127 11.04C52.9247 11.384 52.5607 11.644 52.1207 11.82C51.6807 11.996 51.1847 12.084 50.6327 12.084C49.9287 12.084 49.3087 11.944 48.7727 11.664C48.2367 11.384 47.8207 10.996 47.5247 10.5C47.2367 9.996 47.0927 9.428 47.0927 8.796C47.0927 8.172 47.2327 7.612 47.5127 7.116C47.8007 6.612 48.1967 6.22 48.7007 5.94C49.2047 5.66 49.7727 5.52 50.4047 5.52C51.0287 5.52 51.5847 5.66 52.0727 5.94C52.5687 6.212 52.9527 6.6 53.2247 7.104C53.5047 7.6 53.6447 8.176 53.6447 8.832ZM50.4047 6.72C49.9247 6.72 49.5167 6.864 49.1807 7.152C48.8527 7.432 48.6527 7.808 48.5807 8.28H52.2167C52.1527 7.816 51.9567 7.44 51.6287 7.152C51.3007 6.864 50.8927 6.72 50.4047 6.72ZM56.5136 6.528C56.9456 5.856 57.7056 5.52 58.7936 5.52V6.948C58.6656 6.924 58.5496 6.912 58.4456 6.912C57.8616 6.912 57.4056 7.084 57.0776 7.428C56.7496 7.764 56.5856 8.252 56.5856 8.892V12H55.0856V5.592H56.5136V6.528ZM66.0314 8.832C66.0314 8.936 66.0234 9.084 66.0074 9.276H60.9794C61.0674 9.748 61.2954 10.124 61.6634 10.404C62.0394 10.676 62.5034 10.812 63.0554 10.812C63.7594 10.812 64.3394 10.58 64.7954 10.116L65.5994 11.04C65.3114 11.384 64.9474 11.644 64.5074 11.82C64.0674 11.996 63.5714 12.084 63.0194 12.084C62.3154 12.084 61.6954 11.944 61.1594 11.664C60.6234 11.384 60.2074 10.996 59.9114 10.5C59.6234 9.996 59.4794 9.428 59.4794 8.796C59.4794 8.172 59.6194 7.612 59.8994 7.116C60.1874 6.612 60.5834 6.22 61.0874 5.94C61.5914 5.66 62.1594 5.52 62.7914 5.52C63.4154 5.52 63.9714 5.66 64.4594 5.94C64.9554 6.212 65.3394 6.6 65.6114 7.104C65.8914 7.6 66.0314 8.176 66.0314 8.832ZM62.7914 6.72C62.3114 6.72 61.9034 6.864 61.5674 7.152C61.2394 7.432 61.0394 7.808 60.9674 8.28H64.6034C64.5394 7.816 64.3434 7.44 64.0154 7.152C63.6874 6.864 63.2794 6.72 62.7914 6.72ZM73.7483 3.096V12H72.3083V11.172C72.0603 11.476 71.7523 11.704 71.3843 11.856C71.0243 12.008 70.6243 12.084 70.1843 12.084C69.5683 12.084 69.0123 11.948 68.5163 11.676C68.0283 11.404 67.6443 11.02 67.3643 10.524C67.0843 10.02 66.9443 9.444 66.9443 8.796C66.9443 8.148 67.0843 7.576 67.3643 7.08C67.6443 6.584 68.0283 6.2 68.5163 5.928C69.0123 5.656 69.5683 5.52 70.1843 5.52C70.6083 5.52 70.9963 5.592 71.3483 5.736C71.7003 5.88 72.0003 6.096 72.2483 6.384V3.096H73.7483ZM70.3643 10.8C70.7243 10.8 71.0483 10.72 71.3363 10.56C71.6243 10.392 71.8523 10.156 72.0203 9.852C72.1883 9.548 72.2723 9.196 72.2723 8.796C72.2723 8.396 72.1883 8.044 72.0203 7.74C71.8523 7.436 71.6243 7.204 71.3363 7.044C71.0483 6.876 70.7243 6.792 70.3643 6.792C70.0043 6.792 69.6803 6.876 69.3923 7.044C69.1043 7.204 68.8763 7.436 68.7083 7.74C68.5403 8.044 68.4563 8.396 68.4563 8.796C68.4563 9.196 68.5403 9.548 68.7083 9.852C68.8763 10.156 69.1043 10.392 69.3923 10.56C69.6803 10.72 70.0043 10.8 70.3643 10.8ZM82.579 5.52C83.203 5.52 83.759 5.656 84.247 5.928C84.743 6.2 85.131 6.584 85.411 7.08C85.691 7.576 85.831 8.148 85.831 8.796C85.831 9.444 85.691 10.02 85.411 10.524C85.131 11.02 84.743 11.404 84.247 11.676C83.759 11.948 83.203 12.084 82.579 12.084C82.139 12.084 81.735 12.008 81.367 11.856C81.007 11.704 80.703 11.476 80.455 11.172V12H79.027V3.096H80.527V6.372C80.783 6.092 81.083 5.88 81.427 5.736C81.779 5.592 82.163 5.52 82.579 5.52ZM82.411 10.8C82.963 10.8 83.415 10.616 83.767 10.248C84.127 9.88 84.307 9.396 84.307 8.796C84.307 8.196 84.127 7.712 83.767 7.344C83.415 6.976 82.963 6.792 82.411 6.792C82.051 6.792 81.727 6.876 81.439 7.044C81.151 7.204 80.923 7.436 80.755 7.74C80.587 8.044 80.503 8.396 80.503 8.796C80.503 9.196 80.587 9.548 80.755 9.852C80.923 10.156 81.151 10.392 81.439 10.56C81.727 10.72 82.051 10.8 82.411 10.8ZM93.0778 5.592L90.0778 12.516C89.7978 13.212 89.4578 13.7 89.0578 13.98C88.6578 14.268 88.1738 14.412 87.6058 14.412C87.2858 14.412 86.9698 14.36 86.6578 14.256C86.3458 14.152 86.0897 14.008 85.8897 13.824L86.4897 12.72C86.6338 12.856 86.8018 12.964 86.9938 13.044C87.1938 13.124 87.3938 13.164 87.5938 13.164C87.8578 13.164 88.0738 13.096 88.2418 12.96C88.4178 12.824 88.5778 12.596 88.7218 12.276L88.8298 12.024L86.0337 5.592H87.5938L89.6098 10.332L91.6378 5.592H93.0778ZM102.924 10.056H98.7237L97.8957 12H96.2877L100.068 3.6H101.604L105.396 12H103.764L102.924 10.056ZM102.408 8.832L100.824 5.16L99.2517 8.832H102.408ZM106.464 3.6H108.024V12H106.464V3.6ZM117.76 3.6V12H116.476L111.844 6.312V12H110.296V3.6H111.58L116.212 9.288V3.6H117.76ZM120.011 3.6H121.571V12H120.011V3.6ZM130.371 10.68V12H123.207V10.956L128.151 4.92H123.291V3.6H130.215V4.644L125.271 10.68H130.371ZM138.1 10.692V12H131.8V3.6H137.932V4.908H133.36V7.092H137.416V8.376H133.36V10.692H138.1Z" fill="#979797"/>
<path fill-rule="evenodd" clip-rule="evenodd" d="M3.08571 4.54286C3.08571 5.39495 2.39495 6.08571 1.54286 6.08571C0.690761 6.08571 0 5.39495 0 4.54286C0 3.69076 0.690761 3 1.54286 3C2.39495 3 3.08571 3.69076 3.08571 4.54286ZM6.08572 3.6857C5.56499 3.6857 5.14286 4.10783 5.14286 4.62856C5.14286 5.14929 5.56499 5.57142 6.08572 5.57142H11.0571C11.5779 5.57142 12 5.14929 12 4.62856C12 4.10783 11.5779 3.6857 11.0571 3.6857H6.08572ZM6.08572 12.2571C5.56499 12.2571 5.14286 12.6793 5.14286 13.2C5.14286 13.7207 5.56499 14.1428 6.08572 14.1428H11.0571C11.5779 14.1428 12 13.7207 12 13.2C12 12.6793 11.5779 12.2571 11.0571 12.2571H6.08572ZM0 8.91427C0 8.39355 0.422132 7.97142 0.942857 7.97142H5.91429C6.43501 7.97142 6.85714 8.39355 6.85714 8.91427C6.85714 9.435 6.43501 9.85713 5.91429 9.85713H0.942857C0.422131 9.85713 0 9.435 0 8.91427ZM1.54286 14.6571C2.39495 14.6571 3.08571 13.9664 3.08571 13.1143C3.08571 12.2622 2.39495 11.5714 1.54286 11.5714C0.690761 11.5714 0 12.2622 0 13.1143C0 13.9664 0.690761 14.6571 1.54286 14.6571ZM11.6571 8.82857C11.6571 9.68067 10.9664 10.3714 10.1143 10.3714C9.26219 10.3714 8.57143 9.68067 8.57143 8.82857C8.57143 7.97647 9.26219 7.28571 10.1143 7.28571C10.9664 7.28571 11.6571 7.97647 11.6571 8.82857Z" fill="#979797"/>
</svg>
