<svg width="106" height="35" viewBox="0 0 106 35" fill="none" xmlns="http://www.w3.org/2000/svg">
<g clip-path="url(#clip0)">
<path d="M46.0198 21.2645C45.1659 21.2645 44.4117 21.7915 44.0844 22.589L40 32.8006H42.9743L43.7713 30.7213H48.1972L49.0084 32.8006H52.0539L47.9553 22.589C47.628 21.7915 46.8737 21.2645 46.0198 21.2645ZM44.5825 28.4283L46.0056 24.6541L47.4003 28.4283H44.5825Z" fill="#929292"/>
<path d="M54.4874 26.0784H51.9827C51.4277 26.0784 50.9723 25.6226 50.9723 25.0672C50.9723 24.5117 51.4277 24.056 51.9827 24.056H57.0775V32.8006H54.4874V26.0784Z" fill="#929292"/>
<path d="M73.0593 26.0784H70.5546C69.9995 26.0784 69.5441 25.6226 69.5441 25.0672C69.5441 24.5117 69.9995 24.056 70.5546 24.056H75.6494V32.8006H73.0593V26.0784Z" fill="#929292"/>
<path d="M78.1682 31.4049L82.6369 26.0784H79.3637C78.8087 26.0784 78.3533 25.6226 78.3533 25.0672C78.3533 24.5117 78.8087 24.056 79.3637 24.056H86.2516V25.4375L81.7545 30.764H85.355C85.9243 30.764 86.3797 31.2198 86.3797 31.7894C86.3797 32.3591 85.9243 32.8149 85.355 32.8149H78.1682V31.4049Z" fill="#929292"/>
<path d="M87.3331 28.414C87.3331 25.5514 89.539 23.8281 91.8871 23.8281C94.5769 23.8281 96 25.7935 96 28.0295C96 28.4425 96 28.8413 95.9573 29.1973H89.2686V27.4598H94.1499L93.7372 27.9583C93.7372 26.5483 93.1253 25.822 91.9725 25.822C90.6917 25.822 89.8521 26.6907 89.8521 28.4283C89.8521 30.237 90.834 31.0346 92.5418 31.0346C93.0826 31.0346 93.6234 30.9349 94.1215 30.7497C94.5484 30.5931 95.0323 30.764 95.26 31.1628C95.5161 31.6327 95.3169 32.2452 94.8188 32.4588C94.0076 32.8148 93.0399 33.0142 92.186 33.0142C89.4536 33 87.3331 31.3194 87.3331 28.414Z" fill="#929292"/>
<path d="M69.1741 21.7772H60.7207C60.1372 21.7772 59.6676 21.3072 59.6676 20.7233C59.6676 20.1394 60.1372 19.6694 60.7207 19.6694H69.1741C69.7575 19.6694 70.2272 20.1394 70.2272 20.7233C70.2272 21.3072 69.7575 21.7772 69.1741 21.7772Z" fill="#929292"/>
<path d="M55.6686 22.4466C56.6196 22.4466 57.3906 21.675 57.3906 20.7233C57.3906 19.7715 56.6196 19 55.6686 19C54.7176 19 53.9466 19.7715 53.9466 20.7233C53.9466 21.675 54.7176 22.4466 55.6686 22.4466Z" fill="#929292"/>
<path d="M74.2404 22.4466C75.1914 22.4466 75.9624 21.675 75.9624 20.7233C75.9624 19.7715 75.1914 19 74.2404 19C73.2894 19 72.5184 19.7715 72.5184 20.7233C72.5184 21.675 73.2894 22.4466 74.2404 22.4466Z" fill="#929292"/>
<path d="M65.232 23.8281C64.0508 23.8281 63.1542 24.3408 62.4284 24.9959C62.3999 24.3123 61.8307 23.7711 61.1334 23.7711C60.4218 23.7711 59.8383 24.355 59.8383 25.0672V25.5941V32.7864H62.4284V27.061C63.0119 26.4202 63.51 26.0499 64.1931 26.0499C65.1466 26.0499 65.4739 26.5626 65.4739 27.7304V32.8006H68.064V27.3886C68.0782 25.1811 67.2101 23.8281 65.232 23.8281Z" fill="#929292"/>
</g>
<path d="M40.936 14.592V7.656C40.936 7.376 40.928 7.096 40.912 6.816C40.904 6.528 40.88 6.244 40.84 5.964H41.764L41.872 7.212L41.776 7.392C41.912 6.888 42.172 6.5 42.556 6.228C42.94 5.956 43.404 5.82 43.948 5.82C44.476 5.82 44.94 5.952 45.34 6.216C45.748 6.48 46.064 6.848 46.288 7.32C46.52 7.792 46.636 8.344 46.636 8.976C46.636 9.608 46.52 10.16 46.288 10.632C46.064 11.096 45.752 11.456 45.352 11.712C44.952 11.96 44.484 12.084 43.948 12.084C43.404 12.084 42.94 11.948 42.556 11.676C42.172 11.404 41.912 11.016 41.776 10.512L41.908 10.392V14.592H40.936ZM43.768 11.28C44.352 11.28 44.808 11.08 45.136 10.68C45.464 10.28 45.628 9.712 45.628 8.976C45.628 8.24 45.464 7.668 45.136 7.26C44.808 6.844 44.352 6.636 43.768 6.636C43.168 6.636 42.708 6.836 42.388 7.236C42.068 7.636 41.908 8.208 41.908 8.952C41.908 9.696 42.068 10.272 42.388 10.68C42.708 11.08 43.168 11.28 43.768 11.28ZM50.6273 12.084C50.0513 12.084 49.5473 11.956 49.1153 11.7C48.6913 11.444 48.3593 11.084 48.1193 10.62C47.8873 10.148 47.7713 9.592 47.7713 8.952C47.7713 8.32 47.8873 7.768 48.1193 7.296C48.3593 6.824 48.6913 6.46 49.1153 6.204C49.5473 5.948 50.0513 5.82 50.6273 5.82C51.2033 5.82 51.7033 5.948 52.1273 6.204C52.5593 6.46 52.8913 6.824 53.1233 7.296C53.3633 7.768 53.4833 8.32 53.4833 8.952C53.4833 9.592 53.3633 10.148 53.1233 10.62C52.8913 11.084 52.5593 11.444 52.1273 11.7C51.7033 11.956 51.2033 12.084 50.6273 12.084ZM50.6273 11.28C51.2193 11.28 51.6753 11.084 51.9953 10.692C52.3233 10.292 52.4873 9.712 52.4873 8.952C52.4873 8.208 52.3233 7.636 51.9953 7.236C51.6673 6.836 51.2113 6.636 50.6273 6.636C50.0433 6.636 49.5833 6.836 49.2473 7.236C48.9193 7.636 48.7553 8.208 48.7553 8.952C48.7553 9.712 48.9153 10.292 49.2353 10.692C49.5633 11.084 50.0273 11.28 50.6273 11.28ZM56.5482 12L54.3162 5.964H55.3362L57.1962 11.28H56.8842L58.8042 5.964H59.6562L61.5522 11.28H61.2402L63.1362 5.964H64.0962L61.8642 12H60.9282L58.9362 6.564H59.4642L57.4842 12H56.5482ZM70.2316 11.28C69.9676 11.528 69.6276 11.724 69.2116 11.868C68.8036 12.012 68.3836 12.084 67.9516 12.084C67.3276 12.084 66.7876 11.96 66.3316 11.712C65.8836 11.464 65.5356 11.108 65.2876 10.644C65.0476 10.172 64.9276 9.612 64.9276 8.964C64.9276 8.34 65.0476 7.792 65.2876 7.32C65.5276 6.848 65.8596 6.48 66.2836 6.216C66.7156 5.952 67.2116 5.82 67.7716 5.82C68.3076 5.82 68.7676 5.94 69.1516 6.18C69.5356 6.412 69.8276 6.748 70.0276 7.188C70.2356 7.628 70.3396 8.156 70.3396 8.772V8.952H65.7796V8.316H69.7876L69.4756 8.76C69.4916 8.056 69.3516 7.516 69.0556 7.14C68.7676 6.764 68.3436 6.576 67.7836 6.576C67.1996 6.576 66.7396 6.784 66.4036 7.2C66.0756 7.608 65.9116 8.176 65.9116 8.904C65.9116 9.688 66.0836 10.28 66.4276 10.68C66.7796 11.08 67.2916 11.28 67.9636 11.28C68.3156 11.28 68.6516 11.224 68.9716 11.112C69.2996 10.992 69.6116 10.812 69.9076 10.572L70.2316 11.28ZM71.8149 12V7.656C71.8149 7.376 71.8069 7.096 71.7909 6.816C71.7829 6.528 71.7589 6.244 71.7189 5.964H72.6429L72.7749 7.452L72.6429 7.416C72.7549 6.888 72.9949 6.492 73.3629 6.228C73.7389 5.956 74.1589 5.82 74.6229 5.82C74.7269 5.82 74.8229 5.828 74.9109 5.844C75.0069 5.852 75.0949 5.868 75.1749 5.892L75.1509 6.78C74.9669 6.716 74.7549 6.684 74.5149 6.684C74.0989 6.684 73.7629 6.776 73.5069 6.96C73.2589 7.144 73.0749 7.38 72.9549 7.668C72.8429 7.948 72.7869 8.244 72.7869 8.556V12H71.8149ZM80.9894 11.28C80.7254 11.528 80.3854 11.724 79.9694 11.868C79.5614 12.012 79.1414 12.084 78.7094 12.084C78.0854 12.084 77.5454 11.96 77.0894 11.712C76.6414 11.464 76.2934 11.108 76.0454 10.644C75.8054 10.172 75.6854 9.612 75.6854 8.964C75.6854 8.34 75.8054 7.792 76.0454 7.32C76.2854 6.848 76.6174 6.48 77.0414 6.216C77.4734 5.952 77.9694 5.82 78.5294 5.82C79.0654 5.82 79.5254 5.94 79.9094 6.18C80.2934 6.412 80.5854 6.748 80.7854 7.188C80.9934 7.628 81.0974 8.156 81.0974 8.772V8.952H76.5374V8.316H80.5454L80.2334 8.76C80.2494 8.056 80.1094 7.516 79.8134 7.14C79.5254 6.764 79.1014 6.576 78.5414 6.576C77.9574 6.576 77.4974 6.784 77.1614 7.2C76.8334 7.608 76.6694 8.176 76.6694 8.904C76.6694 9.688 76.8414 10.28 77.1854 10.68C77.5374 11.08 78.0494 11.28 78.7214 11.28C79.0734 11.28 79.4094 11.224 79.7294 11.112C80.0574 10.992 80.3694 10.812 80.6654 10.572L80.9894 11.28ZM87.8887 12H86.9287V10.38L87.0727 10.512C86.9367 11.016 86.6767 11.404 86.2927 11.676C85.9087 11.948 85.4407 12.084 84.8887 12.084C84.3607 12.084 83.8927 11.956 83.4847 11.7C83.0847 11.436 82.7727 11.068 82.5487 10.596C82.3247 10.116 82.2127 9.56 82.2127 8.928C82.2127 8.296 82.3207 7.748 82.5367 7.284C82.7607 6.82 83.0727 6.46 83.4727 6.204C83.8807 5.948 84.3527 5.82 84.8887 5.82C85.4407 5.82 85.9087 5.96 86.2927 6.24C86.6767 6.512 86.9367 6.896 87.0727 7.392L86.9167 7.512V3.168H87.8887V12ZM85.0807 11.28C85.6647 11.28 86.1167 11.08 86.4367 10.68C86.7647 10.272 86.9287 9.696 86.9287 8.952C86.9287 8.216 86.7687 7.648 86.4487 7.248C86.1287 6.84 85.6727 6.636 85.0807 6.636C84.4887 6.636 84.0247 6.836 83.6887 7.236C83.3607 7.636 83.1967 8.2 83.1967 8.928C83.1967 9.672 83.3607 10.252 83.6887 10.668C84.0247 11.076 84.4887 11.28 85.0807 11.28ZM92.8969 12V3.168H93.8689V7.512L93.7369 7.392C93.8729 6.896 94.1329 6.512 94.5169 6.24C94.9009 5.96 95.3649 5.82 95.9089 5.82C96.4449 5.82 96.9129 5.948 97.3129 6.204C97.7129 6.46 98.0249 6.82 98.2489 7.284C98.4809 7.748 98.5969 8.296 98.5969 8.928C98.5969 9.56 98.4809 10.116 98.2489 10.596C98.0249 11.068 97.7089 11.436 97.3009 11.7C96.9009 11.956 96.4369 12.084 95.9089 12.084C95.3649 12.084 94.9009 11.948 94.5169 11.676C94.1329 11.404 93.8729 11.016 93.7369 10.512L93.8689 10.38V12H92.8969ZM95.7289 11.28C96.3129 11.28 96.7689 11.076 97.0969 10.668C97.4249 10.252 97.5889 9.672 97.5889 8.928C97.5889 8.2 97.4249 7.636 97.0969 7.236C96.7689 6.836 96.3129 6.636 95.7289 6.636C95.1289 6.636 94.6689 6.84 94.3489 7.248C94.0289 7.648 93.8689 8.216 93.8689 8.952C93.8689 9.696 94.0289 10.272 94.3489 10.68C94.6689 11.08 95.1289 11.28 95.7289 11.28ZM99.7339 14.724L99.5299 13.968C99.8979 13.88 100.206 13.776 100.454 13.656C100.71 13.544 100.922 13.396 101.09 13.212C101.266 13.028 101.418 12.784 101.546 12.48L101.93 11.592L102.146 11.292L104.354 5.964H105.326L102.506 12.552C102.29 13.04 102.046 13.428 101.774 13.716C101.502 14.012 101.194 14.236 100.85 14.388C100.514 14.54 100.142 14.652 99.7339 14.724ZM101.942 12.312L99.2299 5.964H100.25L102.434 11.292L101.942 12.312Z" fill="#929292"/>
<circle cx="16" cy="19" r="16" fill="#929292"/>
<path d="M20.8049 15.4555H15.4092C14.6806 15.4555 14.0898 14.8647 14.0898 14.1361C14.0898 13.4075 14.6806 12.8167 15.4092 12.8167H20.8049C21.5335 12.8167 22.1243 13.4075 22.1243 14.1361C22.1243 14.8647 21.5335 15.4555 20.8049 15.4555Z" fill="white"/>
<path d="M11.1361 15.6721C11.9844 15.6721 12.6721 14.9844 12.6721 14.1361C12.6721 13.2878 11.9844 12.6001 11.1361 12.6001C10.2877 12.6001 9.60006 13.2878 9.60006 14.1361C9.60006 14.9844 10.2877 15.6721 11.1361 15.6721Z" fill="white"/>
<path d="M20.8049 25.5773H15.4092C14.6806 25.5773 14.0898 24.9865 14.0898 24.2579C14.0898 23.5293 14.6806 22.9385 15.4092 22.9385H20.8049C21.5335 22.9385 22.1243 23.5293 22.1243 24.2579C22.1243 24.9865 21.5335 25.5773 20.8049 25.5773Z" fill="white"/>
<path d="M11.136 25.7939C11.9843 25.7939 12.672 25.1062 12.672 24.2579C12.672 23.4096 11.9843 22.7219 11.136 22.7219C10.2877 22.7219 9.60002 23.4096 9.60002 24.2579C9.60002 25.1062 10.2877 25.7939 11.136 25.7939Z" fill="white"/>
<path d="M11.1162 17.9367H16.3544C17.083 17.9367 17.6738 18.5275 17.6738 19.2561C17.6738 19.9847 17.083 20.5755 16.3544 20.5755H11.1162C10.3876 20.5755 9.79684 19.9847 9.79684 19.2561C9.79684 18.5275 10.3876 17.9367 11.1162 17.9367Z" fill="white"/>
<path d="M20.8641 20.7921C21.7124 20.7921 22.4001 20.1044 22.4001 19.2561C22.4001 18.4078 21.7124 17.7201 20.8641 17.7201C20.0158 17.7201 19.3281 18.4078 19.3281 19.2561C19.3281 20.1044 20.0158 20.7921 20.8641 20.7921Z" fill="white"/>
<defs>
<clipPath id="clip0">
<rect x="40" y="19" width="56" height="14" fill="white"/>
</clipPath>
</defs>
</svg>
