<svg width="16" height="16" viewBox="0 0 16 16" fill="none" xmlns="http://www.w3.org/2000/svg">
<circle cx="8" cy="8" r="8" fill="#929292"/>
<path d="M10.4024 6.22759H7.70459C7.34028 6.22759 7.04489 5.9322 7.04489 5.5679C7.04489 5.20359 7.34028 4.9082 7.70459 4.9082H10.4024C10.7667 4.9082 11.0621 5.20359 11.0621 5.5679C11.0621 5.9322 10.7667 6.22759 10.4024 6.22759Z" fill="white"/>
<path d="M5.56802 6.33605C5.99217 6.33605 6.33602 5.99221 6.33602 5.56805C6.33602 5.1439 5.99217 4.80005 5.56802 4.80005C5.14386 4.80005 4.80002 5.1439 4.80002 5.56805C4.80002 5.99221 5.14386 6.33605 5.56802 6.33605Z" fill="white"/>
<path d="M10.4024 11.2886H7.70459C7.34028 11.2886 7.04489 10.9932 7.04489 10.6289C7.04489 10.2646 7.34028 9.96924 7.70459 9.96924H10.4024C10.7667 9.96924 11.0621 10.2646 11.0621 10.6289C11.0621 10.9932 10.7667 11.2886 10.4024 11.2886Z" fill="white"/>
<path d="M5.56799 11.3971C5.99214 11.3971 6.33599 11.0532 6.33599 10.6291C6.33599 10.2049 5.99214 9.86108 5.56799 9.86108C5.14383 9.86108 4.79999 10.2049 4.79999 10.6291C4.79999 11.0532 5.14383 11.3971 5.56799 11.3971Z" fill="white"/>
<path d="M5.5581 7.46851H8.17718C8.54149 7.46851 8.83688 7.76389 8.83688 8.1282C8.83688 8.49251 8.54149 8.78789 8.17718 8.78789H5.5581C5.19379 8.78789 4.89841 8.49251 4.89841 8.1282C4.89841 7.76389 5.19379 7.46851 5.5581 7.46851Z" fill="white"/>
<path d="M10.432 8.89611C10.8562 8.89611 11.2 8.55226 11.2 8.12811C11.2 7.70395 10.8562 7.36011 10.432 7.36011C10.0079 7.36011 9.66403 7.70395 9.66403 8.12811C9.66403 8.55226 10.0079 8.89611 10.432 8.89611Z" fill="white"/>
</svg>
