<svg width="76" height="27" viewBox="0 0 76 27" fill="none" xmlns="http://www.w3.org/2000/svg">
<g clip-path="url(#clip0)">
<path d="M36.4074 15.6175C35.7822 15.6175 35.23 15.9939 34.9903 16.5636L32 23.8576H34.1776L34.7611 22.3723H38.0015L38.5954 23.8576H40.8252L37.8244 16.5636C37.5848 15.9939 37.0325 15.6175 36.4074 15.6175ZM35.355 20.7345L36.397 18.0387L37.418 20.7345H35.355Z" fill="#929292"/>
<path d="M42.6069 19.0559H40.7731C40.3667 19.0559 40.0333 18.7304 40.0333 18.3337C40.0333 17.9369 40.3667 17.6114 40.7731 17.6114H44.5032V23.8576H42.6069V19.0559Z" fill="#929292"/>
<path d="M56.2041 19.0559H54.3703C53.9639 19.0559 53.6305 18.7304 53.6305 18.3337C53.6305 17.9369 53.9639 17.6114 54.3703 17.6114H58.1004V23.8576H56.2041V19.0559Z" fill="#929292"/>
<path d="M59.9446 22.8606L63.2163 19.0559H60.8198C60.4135 19.0559 60.0801 18.7304 60.0801 18.3337C60.0801 17.9369 60.4135 17.6114 60.8198 17.6114H65.8628V18.5982L62.5703 22.4028H65.2064C65.6231 22.4028 65.9566 22.7284 65.9566 23.1353C65.9566 23.5422 65.6231 23.8677 65.2064 23.8677H59.9446V22.8606Z" fill="#929292"/>
<path d="M66.6547 20.7243C66.6547 18.6795 68.2696 17.4486 69.9888 17.4486C71.9581 17.4486 73 18.8525 73 20.4496C73 20.7447 73 21.0295 72.9688 21.2838H68.0717V20.0427H71.6455L71.3433 20.3988C71.3433 19.3917 70.8953 18.8728 70.0513 18.8728C69.1136 18.8728 68.4989 19.4934 68.4989 20.7345C68.4989 22.0264 69.2178 22.5961 70.4681 22.5961C70.8641 22.5961 71.26 22.5249 71.6247 22.3927C71.9372 22.2808 72.2915 22.4028 72.4582 22.6877C72.6458 23.0234 72.4999 23.4608 72.1352 23.6134C71.5413 23.8677 70.8328 24.0102 70.2076 24.0102C68.2071 24 66.6547 22.7996 66.6547 20.7243Z" fill="#929292"/>
<path d="M53.3596 15.9837H47.1705C46.7433 15.9837 46.3995 15.648 46.3995 15.2309C46.3995 14.8138 46.7433 14.4781 47.1705 14.4781H53.3596C53.7868 14.4781 54.1306 14.8138 54.1306 15.2309C54.1306 15.648 53.7868 15.9837 53.3596 15.9837Z" fill="#929292"/>
<path d="M43.4717 16.4619C44.168 16.4619 44.7324 15.9107 44.7324 15.2309C44.7324 14.5511 44.168 14 43.4717 14C42.7754 14 42.2109 14.5511 42.2109 15.2309C42.2109 15.9107 42.7754 16.4619 43.4717 16.4619Z" fill="#929292"/>
<path d="M57.0689 16.4619C57.7652 16.4619 58.3296 15.9107 58.3296 15.2309C58.3296 14.5511 57.7652 14 57.0689 14C56.3726 14 55.8081 14.5511 55.8081 15.2309C55.8081 15.9107 56.3726 16.4619 57.0689 16.4619Z" fill="#929292"/>
<path d="M50.4734 17.4486C49.6086 17.4486 48.9522 17.8148 48.4208 18.2828C48.4 17.7945 47.9832 17.4079 47.4727 17.4079C46.9517 17.4079 46.5245 17.825 46.5245 18.3337V18.7101V23.8474H48.4208V19.7579C48.848 19.3001 49.2127 19.0356 49.7128 19.0356C50.4109 19.0356 50.6506 19.4018 50.6506 20.236V23.8576H52.5469V19.9919C52.5573 18.415 51.9217 17.4486 50.4734 17.4486Z" fill="#929292"/>
</g>
<path d="M34.632 3.88C34.984 3.88 35.296 3.968 35.568 4.144C35.84 4.32 36.0507 4.568 36.2 4.888C36.3493 5.20267 36.424 5.568 36.424 5.984C36.424 6.4 36.3493 6.76533 36.2 7.08C36.0507 7.38933 35.84 7.62933 35.568 7.8C35.3013 7.97067 34.9893 8.056 34.632 8.056C34.3173 8.056 34.0427 7.98667 33.808 7.848C33.5733 7.70933 33.3947 7.512 33.272 7.256V9.728H32.624V5.104C32.624 4.688 32.6027 4.312 32.56 3.976H33.176L33.24 4.752C33.352 4.47467 33.528 4.26133 33.768 4.112C34.0133 3.95733 34.3013 3.88 34.632 3.88ZM34.512 7.52C34.9067 7.52 35.2107 7.38667 35.424 7.12C35.6427 6.85333 35.752 6.47467 35.752 5.984C35.752 5.49333 35.6427 5.112 35.424 4.84C35.2053 4.56267 34.9013 4.424 34.512 4.424C34.112 4.424 33.8053 4.55733 33.592 4.824C33.3787 5.09067 33.272 5.472 33.272 5.968C33.272 6.464 33.3787 6.848 33.592 7.12C33.8053 7.38667 34.112 7.52 34.512 7.52ZM39.0849 8.056C38.7062 8.056 38.3729 7.97067 38.0849 7.8C37.7969 7.62933 37.5729 7.38667 37.4129 7.072C37.2582 6.75733 37.1809 6.38933 37.1809 5.968C37.1809 5.54667 37.2582 5.17867 37.4129 4.864C37.5729 4.54933 37.7969 4.30667 38.0849 4.136C38.3729 3.96533 38.7062 3.88 39.0849 3.88C39.4635 3.88 39.7969 3.96533 40.0849 4.136C40.3729 4.30667 40.5942 4.54933 40.7489 4.864C40.9089 5.17867 40.9889 5.54667 40.9889 5.968C40.9889 6.38933 40.9089 6.75733 40.7489 7.072C40.5942 7.38667 40.3729 7.62933 40.0849 7.8C39.7969 7.97067 39.4635 8.056 39.0849 8.056ZM39.0849 7.52C39.4849 7.52 39.7915 7.38933 40.0049 7.128C40.2182 6.86133 40.3249 6.47467 40.3249 5.968C40.3249 5.47733 40.2155 5.09867 39.9969 4.832C39.7782 4.56 39.4742 4.424 39.0849 4.424C38.6902 4.424 38.3835 4.56 38.1649 4.832C37.9462 5.09867 37.8369 5.47733 37.8369 5.968C37.8369 6.47467 37.9435 6.86133 38.1569 7.128C38.3755 7.38933 38.6849 7.52 39.0849 7.52ZM47.4241 3.976H48.0641L46.5761 8H45.9521L44.8001 4.856L43.6561 8H43.0321L41.5441 3.976H42.2241L43.3601 7.224L44.5361 3.976H45.1041L46.2641 7.232L47.4241 3.976ZM52.2264 5.968H49.2744C49.2797 6.48 49.397 6.86667 49.6264 7.128C49.861 7.38933 50.1997 7.52 50.6424 7.52C51.1117 7.52 51.5437 7.36267 51.9384 7.048L52.1544 7.52C51.9784 7.68533 51.7517 7.816 51.4744 7.912C51.2024 8.008 50.9224 8.056 50.6344 8.056C50.005 8.056 49.5117 7.872 49.1544 7.504C48.797 7.13067 48.6184 6.62133 48.6184 5.976C48.6184 5.56533 48.6984 5.20267 48.8584 4.888C49.0184 4.568 49.2424 4.32 49.5304 4.144C49.8184 3.968 50.1464 3.88 50.5144 3.88C51.0477 3.88 51.4664 4.056 51.7704 4.408C52.0744 4.75467 52.2264 5.23467 52.2264 5.848V5.968ZM50.5224 4.384C50.1864 4.384 49.9117 4.48533 49.6984 4.688C49.4904 4.89067 49.357 5.176 49.2984 5.544H51.6424C51.6104 5.16533 51.4984 4.87733 51.3064 4.68C51.1197 4.48267 50.8584 4.384 50.5224 4.384ZM55.0819 3.88C55.2153 3.88 55.3379 3.896 55.4499 3.928L55.4339 4.52C55.3113 4.47733 55.1699 4.456 55.0099 4.456C54.6206 4.456 54.3299 4.57867 54.1379 4.824C53.9513 5.064 53.8579 5.35733 53.8579 5.704V8H53.2099V5.104C53.2099 4.688 53.1886 4.312 53.1459 3.976H53.7619L53.8259 4.72C53.9273 4.448 54.0899 4.24 54.3139 4.096C54.5379 3.952 54.7939 3.88 55.0819 3.88ZM59.3983 5.968H56.4463C56.4516 6.48 56.5689 6.86667 56.7983 7.128C57.0329 7.38933 57.3716 7.52 57.8143 7.52C58.2836 7.52 58.7156 7.36267 59.1103 7.048L59.3263 7.52C59.1503 7.68533 58.9236 7.816 58.6463 7.912C58.3743 8.008 58.0943 8.056 57.8063 8.056C57.1769 8.056 56.6836 7.872 56.3263 7.504C55.9689 7.13067 55.7903 6.62133 55.7903 5.976C55.7903 5.56533 55.8703 5.20267 56.0303 4.888C56.1903 4.568 56.4143 4.32 56.7023 4.144C56.9903 3.968 57.3183 3.88 57.6863 3.88C58.2196 3.88 58.6383 4.056 58.9423 4.408C59.2463 4.75467 59.3983 5.23467 59.3983 5.848V5.968ZM57.6943 4.384C57.3583 4.384 57.0836 4.48533 56.8703 4.688C56.6623 4.89067 56.5289 5.176 56.4703 5.544H58.8143C58.7823 5.16533 58.6703 4.87733 58.4783 4.68C58.2916 4.48267 58.0303 4.384 57.6943 4.384ZM63.9258 2.112V8H63.2858V7.272C63.1685 7.52267 62.9898 7.71733 62.7498 7.856C62.5151 7.98933 62.2405 8.056 61.9258 8.056C61.5738 8.056 61.2618 7.968 60.9898 7.792C60.7231 7.616 60.5151 7.37067 60.3658 7.056C60.2165 6.736 60.1418 6.368 60.1418 5.952C60.1418 5.536 60.2138 5.17333 60.3578 4.864C60.5071 4.54933 60.7178 4.30667 60.9898 4.136C61.2618 3.96533 61.5738 3.88 61.9258 3.88C62.2405 3.88 62.5151 3.94933 62.7498 4.088C62.9845 4.22133 63.1605 4.41067 63.2778 4.656V2.112H63.9258ZM62.0538 7.52C62.4485 7.52 62.7525 7.38667 62.9658 7.12C63.1791 6.848 63.2858 6.464 63.2858 5.968C63.2858 5.47733 63.1791 5.09867 62.9658 4.832C62.7525 4.56 62.4485 4.424 62.0538 4.424C61.6591 4.424 61.3498 4.55733 61.1258 4.824C60.9071 5.09067 60.7978 5.46667 60.7978 5.952C60.7978 6.448 60.9071 6.83467 61.1258 7.112C61.3498 7.384 61.6591 7.52 62.0538 7.52ZM69.2726 3.88C69.6246 3.88 69.9366 3.96533 70.2086 4.136C70.4806 4.30667 70.6913 4.54933 70.8406 4.864C70.99 5.17333 71.0646 5.536 71.0646 5.952C71.0646 6.368 70.99 6.736 70.8406 7.056C70.6913 7.37067 70.4806 7.616 70.2086 7.792C69.9366 7.968 69.6246 8.056 69.2726 8.056C68.958 8.056 68.6833 7.98667 68.4486 7.848C68.214 7.70933 68.0353 7.512 67.9126 7.256V8H67.2646V2.112H67.9126V4.688C68.03 4.42667 68.206 4.22667 68.4406 4.088C68.6806 3.94933 68.958 3.88 69.2726 3.88ZM69.1526 7.52C69.542 7.52 69.846 7.384 70.0646 7.112C70.2833 6.83467 70.3926 6.448 70.3926 5.952C70.3926 5.46667 70.2833 5.09067 70.0646 4.824C69.8513 4.55733 69.5473 4.424 69.1526 4.424C68.7526 4.424 68.446 4.55733 68.2326 4.824C68.0193 5.09067 67.9126 5.472 67.9126 5.968C67.9126 6.464 68.0193 6.848 68.2326 7.12C68.446 7.38667 68.7526 7.52 69.1526 7.52ZM75.5506 3.976L73.6706 8.368C73.4733 8.82667 73.2253 9.16267 72.9266 9.376C72.628 9.58933 72.26 9.736 71.8226 9.816L71.6866 9.312C72.0653 9.22667 72.3506 9.112 72.5426 8.968C72.74 8.82933 72.9026 8.61333 73.0306 8.32L73.1906 7.96L71.4866 3.976H72.1666L73.5266 7.296L74.9026 3.976H75.5506Z" fill="#929292"/>
<circle cx="13" cy="14" r="13" fill="#929292"/>
<path d="M16.904 11.12H12.52C11.928 11.12 11.448 10.64 11.448 10.048C11.448 9.456 11.928 8.976 12.52 8.976H16.904C17.496 8.976 17.976 9.456 17.976 10.048C17.976 10.64 17.496 11.12 16.904 11.12Z" fill="white"/>
<path d="M9.048 11.296C9.73725 11.296 10.296 10.7373 10.296 10.048C10.296 9.35875 9.73725 8.8 9.048 8.8C8.35874 8.8 7.8 9.35875 7.8 10.048C7.8 10.7373 8.35874 11.296 9.048 11.296Z" fill="white"/>
<path d="M16.904 19.344H12.52C11.928 19.344 11.448 18.864 11.448 18.272C11.448 17.68 11.928 17.2 12.52 17.2H16.904C17.496 17.2 17.976 17.68 17.976 18.272C17.976 18.864 17.496 19.344 16.904 19.344Z" fill="white"/>
<path d="M9.04799 19.52C9.73724 19.52 10.296 18.9613 10.296 18.272C10.296 17.5828 9.73724 17.024 9.04799 17.024C8.35874 17.024 7.79999 17.5828 7.79999 18.272C7.79999 18.9613 8.35874 19.52 9.04799 19.52Z" fill="white"/>
<path d="M9.03202 13.136H13.288C13.88 13.136 14.36 13.616 14.36 14.208C14.36 14.8 13.88 15.28 13.288 15.28H9.03202C8.44002 15.28 7.96002 14.8 7.96002 14.208C7.96002 13.616 8.44002 13.136 9.03202 13.136Z" fill="white"/>
<path d="M16.952 15.456C17.6412 15.456 18.2 14.8973 18.2 14.208C18.2 13.5188 17.6412 12.96 16.952 12.96C16.2627 12.96 15.704 13.5188 15.704 14.208C15.704 14.8973 16.2627 15.456 16.952 15.456Z" fill="white"/>
<defs>
<clipPath id="clip0">
<rect x="32" y="14" width="41" height="10" fill="white"/>
</clipPath>
</defs>
</svg>
