<svg width="16" height="16" viewBox="0 0 16 16" fill="none" xmlns="http://www.w3.org/2000/svg">
<path d="M8.00007 0C3.58233 0 0 3.67232 0 8.20254C0 11.8266 2.29226 14.9013 5.47093 15.9859C5.87075 16.0618 6.01754 15.808 6.01754 15.5913C6.01754 15.3957 6.01012 14.7496 6.00667 14.0642C3.78105 14.5604 3.31141 13.0964 3.31141 13.0964C2.9475 12.1483 2.42315 11.8962 2.42315 11.8962C1.6973 11.3871 2.47786 11.3975 2.47786 11.3975C3.28121 11.4554 3.70421 12.2428 3.70421 12.2428C4.41774 13.4968 5.57572 13.1343 6.03224 12.9247C6.10404 12.3945 6.31137 12.0327 6.54016 11.8279C4.76324 11.6204 2.8953 10.9171 2.8953 7.77413C2.8953 6.8786 3.20782 6.14688 3.71958 5.57245C3.63651 5.36585 3.36268 4.53158 3.79708 3.40174C3.79708 3.40174 4.46887 3.18129 5.99766 4.24253C6.63581 4.06079 7.32019 3.96965 8.00007 3.96652C8.67994 3.96965 9.36485 4.06079 10.0042 4.24253C11.5311 3.18129 12.202 3.40174 12.202 3.40174C12.6375 4.53158 12.3635 5.36585 12.2804 5.57245C12.7934 6.14688 13.1038 6.8786 13.1038 7.77413C13.1038 10.9246 11.2323 11.6183 9.45083 11.8213C9.73778 12.0759 9.99346 12.5751 9.99346 13.3403C9.99346 14.4378 9.98419 15.3211 9.98419 15.5913C9.98419 15.8096 10.1282 16.0654 10.5337 15.9848C13.7107 14.899 16 11.8254 16 8.20254C16 3.67232 12.4182 0 8.00007 0Z" fill="#636363"/>
</svg>
