<svg width="20" height="20" viewBox="0 0 20 20" fill="none" xmlns="http://www.w3.org/2000/svg">
<circle cx="10" cy="10" r="10" fill="#C4C4C4"/>
<path d="M7.85136 14.9988C8.22498 14.9989 8.59496 14.9253 8.94012 14.7823C9.28528 14.6392 9.59886 14.4296 9.86292 14.1653L11.3993 12.6239C11.4936 12.5295 11.5466 12.4016 11.5466 12.2681C11.5466 12.1347 11.4936 12.0067 11.3993 11.9123C11.3049 11.818 11.1769 11.7649 11.0435 11.7649C10.91 11.7649 10.782 11.818 10.6877 11.9123L9.15636 13.4537C8.80932 13.7953 8.34134 13.9858 7.8544 13.9839C7.36746 13.982 6.90101 13.7877 6.55669 13.4433C6.21237 13.099 6.01807 12.6326 6.01614 12.1456C6.0142 11.6587 6.20479 11.1907 6.54636 10.8437L8.08269 9.30735C8.15947 9.21067 8.198 9.08914 8.19096 8.96589C8.18391 8.84264 8.13178 8.72629 8.04448 8.63899C7.95719 8.5517 7.84084 8.49957 7.71759 8.49252C7.59434 8.48547 7.4728 8.52401 7.37613 8.60078L5.83477 10.1333C5.43641 10.5317 5.16504 11.0392 5.05495 11.5917C4.94486 12.1442 5.00098 12.717 5.21623 13.2376C5.43148 13.7583 5.7962 14.2034 6.26432 14.5169C6.73244 14.8304 7.28296 14.9981 7.84633 14.9988H7.85136Z" fill="white"/>
<path d="M10.1658 5.80217L8.63328 7.34353C8.53891 7.43789 8.4859 7.56587 8.4859 7.69932C8.4859 7.83277 8.53891 7.96075 8.63328 8.05512C8.72764 8.14948 8.85562 8.20249 8.98907 8.20249C9.12252 8.20249 9.2505 8.14948 9.34487 8.05512L10.8762 6.51376C11.046 6.33576 11.2496 6.1935 11.4752 6.09535C11.7007 5.99719 11.9437 5.94512 12.1896 5.94219C12.4356 5.93926 12.6797 5.98553 12.9075 6.07829C13.1354 6.17104 13.3424 6.30841 13.5163 6.48231C13.6903 6.65621 13.8278 6.86314 13.9207 7.09093C14.0135 7.31872 14.0599 7.56278 14.0571 7.80876C14.0543 8.05474 14.0023 8.29767 13.9043 8.52328C13.8062 8.74889 13.6641 8.95262 13.4862 9.1225L11.9498 10.6601C11.8943 10.7042 11.8488 10.7595 11.8162 10.8224C11.7835 10.8853 11.7646 10.9544 11.7605 11.0252C11.7565 11.096 11.7674 11.1668 11.7927 11.233C11.8179 11.2992 11.8569 11.3594 11.907 11.4095C11.9571 11.4596 12.0173 11.4986 12.0835 11.5238C12.1497 11.5491 12.2205 11.56 12.2913 11.556C12.3621 11.5519 12.4312 11.533 12.4941 11.5003C12.557 11.4677 12.6123 11.4222 12.6564 11.3666L14.1978 9.83409C14.7179 9.29646 15.006 8.57593 14.9998 7.82787C14.9937 7.07981 14.6938 6.36413 14.1648 5.83515C13.6358 5.30617 12.9201 5.00627 12.1721 5.0001C11.424 4.99393 10.7035 5.28199 10.1658 5.80217Z" fill="white"/>
<path d="M7.74708 12.2529C7.79379 12.2996 7.84925 12.3367 7.9103 12.362C7.97135 12.3874 8.03679 12.4004 8.10288 12.4004C8.16896 12.4004 8.2344 12.3874 8.29545 12.362C8.3565 12.3367 8.41197 12.2996 8.45867 12.2529L12.2857 8.42464C12.38 8.33028 12.433 8.20229 12.433 8.06884C12.433 7.93539 12.38 7.80741 12.2857 7.71305C12.1913 7.61869 12.0633 7.56567 11.9299 7.56567C11.7964 7.56567 11.6684 7.61869 11.5741 7.71305L7.74708 11.5426C7.65304 11.6368 7.60022 11.7646 7.60022 11.8977C7.60022 12.0309 7.65304 12.1586 7.74708 12.2529Z" fill="white"/>
</svg>
