<svg width="26" height="16" viewBox="0 0 26 16" fill="none" xmlns="http://www.w3.org/2000/svg">
<path d="M6.65414 15.22C5.84081 15.22 5.26081 14.8134 4.91414 14L0.374141 3.14005C0.254141 2.84672 0.194141 2.60005 0.194141 2.40005C0.194141 1.97338 0.340808 1.61338 0.634141 1.32005C0.940808 1.02672 1.30747 0.880049 1.73414 0.880049C2.49414 0.880049 3.01414 1.24005 3.29414 1.96005L6.79414 11.02L10.3341 1.86005C10.4408 1.59338 10.6275 1.36672 10.8941 1.18005C11.1608 0.980049 11.4675 0.880049 11.8141 0.880049C12.2408 0.880049 12.6008 1.02672 12.8941 1.32005C13.1875 1.60005 13.3341 1.94672 13.3341 2.36005C13.3341 2.57338 13.2808 2.80005 13.1741 3.04005L8.59414 14C8.24748 14.8134 7.66748 15.22 6.85414 15.22H6.65414Z" fill="#3C3C3C"/>
<path d="M20.3729 15.2C18.4262 15.2 16.6729 14.64 15.1129 13.5201C14.7262 13.2534 14.5329 12.8667 14.5329 12.36C14.5329 11.96 14.6729 11.6267 14.9529 11.36C15.2329 11.08 15.5729 10.94 15.9729 10.94C16.2929 10.94 16.5862 11.0334 16.8529 11.22C17.9996 12.06 19.1929 12.48 20.4329 12.48C21.0596 12.48 21.5529 12.3667 21.9129 12.14C22.2729 11.9 22.4529 11.5734 22.4529 11.16V11.12C22.4529 10.72 22.2662 10.4 21.8929 10.16C21.5196 9.90672 20.7662 9.63338 19.6329 9.34005C18.8329 9.14005 18.1862 8.94672 17.6929 8.76005C17.1996 8.56005 16.7262 8.30005 16.2729 7.98005C15.8329 7.66005 15.5062 7.26672 15.2929 6.80005C15.0929 6.32005 14.9929 5.74005 14.9929 5.06005V5.02005C14.9929 3.75338 15.4462 2.73338 16.3529 1.96005C17.2729 1.18672 18.4529 0.800049 19.8929 0.800049C21.5462 0.800049 23.0262 1.21338 24.3329 2.04005C24.7862 2.30672 25.0129 2.71338 25.0129 3.26005C25.0129 3.66005 24.8729 4.00005 24.5929 4.28005C24.3129 4.54672 23.9729 4.68005 23.5729 4.68005C23.3062 4.68005 23.0462 4.60672 22.7929 4.46005C21.7262 3.83338 20.7462 3.52005 19.8529 3.52005C19.2796 3.52005 18.8329 3.63338 18.5129 3.86005C18.2062 4.08672 18.0529 4.38005 18.0529 4.74005V4.78005C18.0529 5.23338 18.2462 5.57338 18.6329 5.80005C19.0196 6.02672 19.8329 6.30005 21.0729 6.62005C22.5929 7.02005 23.7129 7.53338 24.4329 8.16005C25.1529 8.77338 25.5129 9.66005 25.5129 10.82V10.86C25.5129 12.22 25.0396 13.2867 24.0929 14.0601C23.1596 14.8201 21.9196 15.2 20.3729 15.2Z" fill="#3C3C3C"/>
</svg>
