<svg width="24" height="24" viewBox="0 0 24 24" fill="none" xmlns="http://www.w3.org/2000/svg">
<circle cx="12" cy="12" r="11.5" stroke="#DFDFDF"/>
<path d="M15.9073 7.36422C16.1085 7.16307 16.4346 7.16307 16.6358 7.36422C16.8369 7.56537 16.8369 7.89151 16.6358 8.09266L12 12.7284C11.7988 12.9296 11.4727 12.9296 11.2716 12.7284C11.0704 12.5273 11.0704 12.2012 11.2716 12L15.9073 7.36422Z" fill="#929292"/>
<path d="M15.7565 8.24355H13.6961C13.4116 8.24355 13.181 8.01294 13.181 7.72847C13.181 7.44399 13.4116 7.21338 13.6961 7.21338H16.2716C16.556 7.21338 16.7866 7.44399 16.7866 7.72847V10.3039C16.7866 10.5884 16.556 10.819 16.2716 10.819C15.9871 10.819 15.7565 10.5884 15.7565 10.3039V8.24355Z" fill="#929292"/>
<path d="M14.7263 12.6219C14.7263 12.3374 14.9569 12.1068 15.2414 12.1068C15.5259 12.1068 15.7565 12.3374 15.7565 12.6219V15.5193C15.7565 16.3371 15.0935 17.0001 14.2756 17.0001H8.48087C7.66301 17.0001 7 16.3371 7 15.5193L7 9.72452C7 8.90666 7.66301 8.24365 8.48087 8.24365C10.5577 8.24365 10.5577 8.24365 11.6197 8.24365C11.9042 8.24365 12.1348 8.47427 12.1348 8.75874C12.1348 9.04322 11.9042 9.27383 11.6197 9.27383C10.5577 9.27383 10.5577 9.27383 8.48087 9.27383C8.23196 9.27383 8.03017 9.47561 8.03017 9.72452L8.03017 15.5193C8.03017 15.7682 8.23196 15.97 8.48087 15.97H14.2756C14.5245 15.97 14.7263 15.7682 14.7263 15.5193V12.6219Z" fill="#929292"/>
</svg>
