<svg width="10" height="10" viewBox="0 0 10 10" fill="none" xmlns="http://www.w3.org/2000/svg">
<path d="M8.90739 0.364221C9.10854 0.163067 9.43467 0.163067 9.63583 0.364221C9.83698 0.565375 9.83698 0.89151 9.63583 1.09266L5.00005 5.72844C4.7989 5.9296 4.47276 5.9296 4.27161 5.72844C4.07045 5.52729 4.07045 5.20115 4.27161 5L8.90739 0.364221Z" fill="#929292"/>
<path d="M8.75646 1.24355H6.69612C6.41164 1.24355 6.18103 1.01294 6.18103 0.728465C6.18103 0.443991 6.41164 0.213379 6.69612 0.213379H9.27155C9.55602 0.213379 9.78664 0.443991 9.78664 0.728465V3.3039C9.78664 3.58837 9.55602 3.81898 9.27155 3.81898C8.98707 3.81898 8.75646 3.58837 8.75646 3.3039V1.24355Z" fill="#929292"/>
<path d="M7.7263 5.62189C7.7263 5.33741 7.95691 5.1068 8.24138 5.1068C8.52586 5.1068 8.75647 5.33741 8.75647 5.62189V8.51925C8.75647 9.33711 8.09346 10.0001 7.2756 10.0001H1.48087C0.66301 10.0001 0 9.33711 0 8.51925L1.22806e-06 2.72452C1.22806e-06 1.90666 0.66301 1.24365 1.48087 1.24365C3.55767 1.24365 3.55767 1.24365 4.61968 1.24365C4.90416 1.24365 5.13477 1.47427 5.13477 1.75874C5.13477 2.04322 4.90416 2.27383 4.61968 2.27383C3.55767 2.27383 3.55767 2.27383 1.48087 2.27383C1.23196 2.27383 1.03017 2.47561 1.03017 2.72452L1.03017 8.51925C1.03017 8.76817 1.23196 8.96995 1.48087 8.96995H7.2756C7.52451 8.96995 7.7263 8.76817 7.7263 8.51925V5.62189Z" fill="#929292"/>
</svg>
