<svg width="12" height="11" viewBox="0 0 12 11" fill="none" xmlns="http://www.w3.org/2000/svg">
<path d="M-4.71909e-07 5.48924C-4.91432e-07 5.71257 0.0815243 5.92674 0.22664 6.08465C0.371756 6.24256 0.568575 6.33128 0.773799 6.33128L9.26045 6.33128L6.11495 9.52259C6.03651 9.59683 5.97261 9.68751 5.92709 9.78921C5.88156 9.89091 5.85533 10.0016 5.84997 10.1145C5.84461 10.2275 5.86022 10.3405 5.89588 10.4468C5.93153 10.553 5.9865 10.6504 6.0575 10.733C6.1285 10.8157 6.21407 10.8819 6.30911 10.9277C6.40415 10.9736 6.5067 10.9981 6.61065 10.9999C6.71459 11.0017 6.8178 10.9806 6.91411 10.938C7.01042 10.8954 7.09785 10.8321 7.17119 10.752L11.754 6.10604C11.8316 6.02725 11.8935 5.93193 11.9358 5.826C11.9782 5.72007 12 5.6058 12 5.4903C12 5.37479 11.9782 5.26052 11.9358 5.15459C11.8935 5.04867 11.8316 4.95335 11.754 4.87456L7.17119 0.226523C7.02112 0.0741058 6.82155 -0.00719783 6.6164 0.000501162C6.41124 0.0081992 6.2173 0.104268 6.07723 0.267572C5.93716 0.430875 5.86245 0.648039 5.86952 0.871288C5.8766 1.09454 5.96488 1.30558 6.11495 1.458L9.26045 4.64721L0.773799 4.64721C0.568575 4.64721 0.371756 4.73592 0.22664 4.89383C0.0815244 5.05175 -4.52385e-07 5.26592 -4.71909e-07 5.48924Z" fill="white"/>
</svg>
